<svg width="29" height="24" viewBox="0 0 29 24" fill="none" xmlns="http://www.w3.org/2000/svg">
<path d="M9.24459 23.1154C20.0143 23.1154 25.9039 14.4155 25.9039 6.87121C25.9039 6.62413 25.8988 6.37819 25.8873 6.13327C27.0333 5.32472 28.0223 4.32361 28.808 3.17687C27.7589 3.63167 26.6299 3.93776 25.4456 4.07577C26.6544 3.36899 27.5825 2.25083 28.0203 0.917989C26.871 1.58282 25.6136 2.05149 24.3023 2.3038C23.2339 1.19407 21.7128 0.5 20.0284 0.5C16.795 0.5 14.1729 3.05678 14.1729 6.20841C14.1729 6.65647 14.2244 7.09216 14.3248 7.5102C9.45851 7.27144 5.1434 4.99961 2.25551 1.54517C1.73537 2.41645 1.46179 3.40667 1.46269 4.41472C1.46269 6.39549 2.49634 8.14406 4.06828 9.16706C3.13846 9.13937 2.22905 8.89448 1.41652 8.45298C1.41565 8.47695 1.41565 8.50031 1.41565 8.52592C1.41565 11.2908 3.43388 13.5993 6.11301 14.1224C5.60984 14.2561 5.09061 14.3236 4.56909 14.3233C4.19247 14.3233 3.82541 14.2872 3.46868 14.2204C4.2141 16.4889 6.3756 18.1396 8.93832 18.1857C6.93431 19.7173 4.40987 20.6296 1.66618 20.6296C1.19944 20.6299 0.733082 20.6035 0.269531 20.5505C2.86085 22.17 5.93778 23.115 9.24488 23.115" fill="white"/>
</svg>
